<svg xmlns="http://www.w3.org/2000/svg" viewBox="0 0 403.4 187.4" enable-background="new 0 0 403.4 187.4"><path fill="#002F60" d="M223.2 38.4c-2.3-1.1-12.5-3.9-13.2-4-1-.3-2-.7-3-1.2-6.7-2.3-11.6-8.7-11.6-16.2 0-8.6 6.3-15.6 14.5-16.9l.5-.1-1.5-.1c-11.3 0-20.4 10.1-20.4 22.5 0 4.3 1.1 8.2 3 11.6 5.5 7.2 9.3 8.5 10.7 9.6 10 7.4 16.8 19.6 16.8 33.4 0 22.6-18 40.9-40.1 40.9-10 0-19.1-3.7-26.1-9.9 9.5 14.5 26.9 24.2 46.8 24.2 30 0 54.4-22.1 54.4-49.3-.1-19.6-12.6-36.5-30.8-44.5"/><path fill="#009EE0" d="M165.6 58c1.3-.7 7.2-2.2 7.6-2.3.6-.2 1.2-.4 1.7-.7 3.9-1.3 6.7-5 6.7-9.3 0-4.9-3.6-9-8.4-9.8-.1 0-.2 0-.3-.1h.9c6.5 0 11.8 5.8 11.8 13 0 2.5-.6 4.8-1.7 6.7-3.2 4.2-5.4 4.9-6.2 5.5-5.8 4.3-9.7 11.3-9.7 19.2 0 13.1 10.4 23.6 23.2 23.6 5.8 0 11-2.2 15.1-5.7-5.5 8.4-15.5 14-27 14-17.4 0-31.4-12.8-31.4-28.5-.1-11.2 7.1-21 17.7-25.6"/><path fill="#002F60" d="M1.2 180.7c2.2 1.4 5.4 2.5 8.8 2.5 5 0 8-2.7 8-6.5 0-3.6-2-5.6-7.2-7.6-6.2-2.2-10.1-5.4-10.1-10.8 0-5.9 4.9-10.4 12.3-10.4 3.9 0 6.7.9 8.4 1.9l-1.4 4c-1.2-.7-3.8-1.8-7.2-1.8-5.2 0-7.2 3.1-7.2 5.7 0 3.6 2.3 5.3 7.6 7.4 6.5 2.5 9.7 5.6 9.7 11.2 0 5.9-4.4 11-13.4 11-3.7 0-7.7-1.1-9.7-2.5l1.4-4.1zM52.5 172.8c0 10.1-7 14.5-13.6 14.5-7.4 0-13.1-5.4-13.1-14.1 0-9.2 6-14.5 13.6-14.5 7.8 0 13.1 5.7 13.1 14.1m-21.7.3c0 6 3.5 10.5 8.3 10.5 4.8 0 8.3-4.5 8.3-10.6 0-4.6-2.3-10.5-8.2-10.5-5.9-.1-8.4 5.4-8.4 10.6"/><path fill="#002F60" d="M78.3 179.3c0 2.8.1 5.3.2 7.5h-4.4l-.3-4.5h-.1c-1.3 2.2-4.2 5.1-9.1 5.1-4.3 0-9.5-2.4-9.5-12v-16h5v15.2c0 5.2 1.6 8.7 6.1 8.7 3.3 0 5.7-2.3 6.6-4.5.3-.7.5-1.6.5-2.5v-16.8h5v19.8zM90.4 152.8v6.6h7.1v3.8h-7.1v14.8c0 3.4 1 5.3 3.7 5.3 1.4 0 2.2-.1 2.9-.3l.2 3.7c-1 .4-2.5.7-4.4.7-2.3 0-4.2-.8-5.4-2.2-1.4-1.5-1.9-3.9-1.9-7.1v-14.9h-4.2v-3.8h4.2v-5l4.9-1.6zM100.8 146.5h5v17.1h.1c.8-1.4 2-2.7 3.6-3.5 1.5-.8 3.2-1.4 5.1-1.4 3.7 0 9.6 2.3 9.6 11.7v16.3h-5v-15.7c0-4.4-1.6-8.2-6.3-8.2-3.2 0-5.8 2.3-6.7 5-.3.7-.3 1.4-.3 2.4v16.5h-5v-40.2zM143.7 180.7c2.2 1.4 5.4 2.5 8.8 2.5 5 0 8-2.7 8-6.5 0-3.6-2-5.6-7.2-7.6-6.2-2.2-10.1-5.4-10.1-10.8 0-5.9 4.9-10.4 12.3-10.4 3.9 0 6.7.9 8.4 1.9l-1.4 4c-1.2-.7-3.8-1.8-7.2-1.8-5.2 0-7.2 3.1-7.2 5.7 0 3.6 2.3 5.3 7.6 7.4 6.5 2.5 9.7 5.6 9.7 11.2 0 5.9-4.4 11-13.4 11-3.7 0-7.7-1.1-9.7-2.5l1.4-4.1zM175.7 152.8v6.6h7.1v3.8h-7.1v14.8c0 3.4 1 5.3 3.7 5.3 1.4 0 2.2-.1 2.9-.3l.2 3.7c-1 .4-2.5.7-4.4.7-2.3 0-4.2-.8-5.4-2.2-1.4-1.5-1.9-3.9-1.9-7.1v-14.9h-4.2v-3.8h4.2v-5l4.9-1.6zM206.6 180.2c0 2.4.1 4.7.5 6.6h-4.5l-.4-3.5h-.2c-1.5 2.2-4.5 4.1-8.4 4.1-5.5 0-8.4-3.9-8.4-7.9 0-6.6 5.9-10.2 16.5-10.2v-.6c0-2.3-.6-6.3-6.2-6.3-2.5 0-5.2.8-7.1 2l-1.1-3.3c2.3-1.5 5.5-2.4 9-2.4 8.4 0 10.4 5.7 10.4 11.2v10.3zm-4.8-7.5c-5.4-.1-11.6.8-11.6 6.2 0 3.2 2.2 4.8 4.7 4.8 3.6 0 5.8-2.3 6.6-4.6.2-.5.3-1.1.3-1.6v-4.8zM212.9 186.7v-23.6h-3.9v-3.8h3.9v-1.3c0-3.8.8-7.4 3.2-9.6 1.9-1.8 4.4-2.5 6.7-2.5 1.8 0 3.3.4 4.2.8l-.7 3.9c-.7-.3-1.8-.6-3.2-.6-4.2 0-5.3 3.7-5.3 7.9v1.5h6.6v3.8h-6.6v23.6h-4.9zM231.2 186.7v-23.6h-3.9v-3.8h3.9v-1.3c0-3.8.8-7.4 3.2-9.6 1.9-1.8 4.4-2.5 6.7-2.5 1.8 0 3.3.4 4.2.8l-.7 3.9c-.7-.3-1.8-.6-3.2-.6-4.2 0-5.3 3.7-5.3 7.9v1.5h6.6v3.8h-6.6v23.6h-4.9zM244.9 181.6c1.5 1 4.1 2 6.6 2 3.6 0 5.3-1.8 5.3-4.1 0-2.4-1.4-3.7-5.1-5-4.9-1.8-7.2-4.5-7.2-7.8 0-4.4 3.6-8 9.5-8 2.8 0 5.2.8 6.7 1.7l-1.2 3.6c-1.1-.7-3.1-1.6-5.6-1.6-2.9 0-4.6 1.7-4.6 3.7 0 2.3 1.6 3.3 5.2 4.6 4.8 1.8 7.2 4.2 7.2 8.3 0 4.8-3.7 8.3-10.2 8.3-3 0-5.8-.8-7.7-1.9l1.1-3.8zM284.4 186.7l-9.7-38.2h5.2l4.5 19.3c1.1 4.8 2.2 9.5 2.8 13.2h.1c.6-3.8 1.8-8.3 3.1-13.2l5.1-19.2h5.2l4.6 19.4c1.1 4.5 2.1 9.1 2.7 13.1h.1c.8-4.2 1.9-8.4 3.1-13.2l5-19.2h5l-10.8 38.2h-5.2l-4.8-19.9c-1.2-4.9-2-8.6-2.5-12.5h-.1c-.7 3.8-1.5 7.5-2.9 12.5l-5.4 19.9h-5.1zM341 180.2c0 2.4.1 4.7.5 6.6h-4.5l-.4-3.5h-.2c-1.5 2.2-4.5 4.1-8.4 4.1-5.5 0-8.4-3.9-8.4-7.9 0-6.6 5.9-10.2 16.5-10.2v-.6c0-2.3-.6-6.3-6.2-6.3-2.5 0-5.2.8-7.1 2l-1.1-3.3c2.3-1.5 5.5-2.4 9-2.4 8.4 0 10.4 5.7 10.4 11.2v10.3zm-4.8-7.5c-5.4-.1-11.6.8-11.6 6.2 0 3.2 2.2 4.8 4.7 4.8 3.6 0 5.8-2.3 6.6-4.6.2-.5.3-1.1.3-1.6v-4.8zM352.5 152.8v6.6h7.1v3.8h-7.1v14.8c0 3.4 1 5.3 3.7 5.3 1.4 0 2.2-.1 2.9-.3l.2 3.7c-1 .4-2.5.7-4.4.7-2.3 0-4.2-.8-5.4-2.2-1.4-1.5-1.9-3.9-1.9-7.1v-14.9h-4.2v-3.8h4.2v-5l4.9-1.6zM366.6 173.9c.1 6.7 4.4 9.5 9.4 9.5 3.6 0 5.7-.6 7.6-1.4l.8 3.6c-1.8.8-4.8 1.8-9.1 1.8-8.4 0-13.5-5.6-13.5-13.9s4.9-14.8 12.9-14.8c8.9 0 11.3 7.9 11.3 12.9 0 1-.1 1.8-.2 2.3h-19.2zm14.6-3.5c.1-3.2-1.3-8.1-6.9-8.1-5 0-7.2 4.6-7.6 8.1h14.5zM389.9 167.9c0-3.2-.1-6-.2-8.5h4.4l.2 5.4h.2c1.2-3.7 4.2-6 7.6-6 .6 0 1 .1 1.4.2v4.7c-.5-.1-1-.2-1.7-.2-3.5 0-6 2.7-6.7 6.4-.1.7-.2 1.5-.2 2.3v14.6h-4.9v-18.9z"/></svg>